<?xml version="1.0" encoding="utf-8"?>
<!-- Generator: Adobe Illustrator 19.1.0, SVG Export Plug-In . SVG Version: 6.00 Build 0)  -->
<svg version="1.1" id="Слой_1" xmlns="http://www.w3.org/2000/svg" xmlns:xlink="http://www.w3.org/1999/xlink" x="0px" y="0px"
	 viewBox="0 0 133 40" style="enable-background:new 0 0 133 40;" xml:space="preserve">
<style type="text/css">
	.st0{fill:#FFFFFF;}
</style>
<g>
<!--	<g>
		<path class="st0" d="M147.7,6.7c1.6,0,2.7,1.1,2.7,2.6c0,1.2-0.7,2.2-1.8,2.5l2.2,3.8c0,0-0.3,0.1-0.7,0.1c-0.5,0-0.7-0.1-0.7-0.1
			l-2.1-3.6h-1.5v3.6c0,0-0.2,0.1-0.6,0.1c-0.5,0-0.6-0.1-0.6-0.1V6.7H147.7z M145.8,10.9h1.8c1,0,1.5-0.6,1.5-1.6s-0.5-1.6-1.5-1.6
			h-1.8V10.9z"/>
		<path class="st0" d="M151.9,9.2c0,0,0.2-0.1,0.6-0.1c0.4,0,0.6,0.1,0.6,0.1v4.5c0,0.7,0.4,1.1,1.2,1.1c0.5,0,1.1-0.3,1.4-0.8V9.2
			c0,0,0.2-0.1,0.6-0.1c0.4,0,0.6,0.1,0.6,0.1v6.4c0,0-0.2,0.1-0.6,0.1c-0.4,0-0.6-0.1-0.6-0.1V15c-0.4,0.5-1.1,0.8-1.9,0.8
			c-1.2,0-1.9-0.8-1.9-1.9L151.9,9.2L151.9,9.2z"/>
		<path class="st0" d="M160.9,9c1.2,0,1.8,0.3,1.8,0.3c0,0.3-0.1,0.7-0.3,0.9c0,0-0.6-0.2-1.3-0.2c-0.8,0-1.3,0.3-1.3,0.9
			c0,0.6,0.8,0.8,1.6,1c0.8,0.3,1.7,0.6,1.7,1.9s-0.8,2-2.4,2c-1.3,0-2.1-0.4-2.1-0.4c0-0.4,0.1-0.7,0.3-0.9c0,0,0.8,0.3,1.7,0.3
			c0.8,0,1.2-0.3,1.2-0.9c0-0.7-0.7-0.8-1.4-1c-0.8-0.2-1.8-0.6-1.8-1.8C158.5,9.8,159.3,9,160.9,9z"/>
		<path class="st0" d="M166.4,9c1.2,0,1.8,0.3,1.8,0.3c0,0.3-0.1,0.7-0.3,0.9c0,0-0.6-0.2-1.3-0.2c-0.8,0-1.3,0.3-1.3,0.9
			c0,0.6,0.8,0.8,1.6,1c0.8,0.3,1.7,0.6,1.7,1.9s-0.8,2-2.4,2c-1.3,0-2.1-0.4-2.1-0.4c0-0.4,0.1-0.7,0.3-0.9c0,0,0.8,0.3,1.7,0.3
			c0.8,0,1.2-0.3,1.2-0.9c0-0.7-0.7-0.8-1.4-1c-0.8-0.2-1.8-0.6-1.8-1.8C164.1,9.8,164.8,9,166.4,9z"/>
		<path class="st0" d="M171.2,7.9c0,0-0.2,0.1-0.6,0.1c-0.4,0-0.6-0.1-0.6-0.1V6.7c0,0,0.2-0.1,0.6-0.1c0.4,0,0.6,0.1,0.6,0.1V7.9z
			 M171.2,15.6c0,0-0.2,0.1-0.6,0.1c-0.4,0-0.6-0.1-0.6-0.1V9.2c0,0,0.2-0.1,0.6-0.1c0.4,0,0.6,0.1,0.6,0.1V15.6z"/>
		<path class="st0" d="M175.3,9c1.8,0,2.4,0.8,2.4,2.4v4.2c0,0-0.1,0.1-0.5,0.1c-0.3,0-0.5-0.1-0.5-0.1l-0.2-0.8c-0.3,0.7-1,1-2,1
			c-1.2,0-1.9-0.7-1.9-2.1s0.8-2,2.4-2c0.6,0,1.1,0,1.4,0.1v-0.5c0-0.8-0.3-1.3-1.3-1.3c-0.9,0-1.7,0.3-1.7,0.3s-0.2-0.1-0.3-0.4
			C173,9.6,173,9.4,173,9.4C173.1,9.5,174.1,9,175.3,9z M175.2,12.6c-0.8,0-1.3,0.3-1.3,1.1s0.4,1.1,1.1,1.1c1,0,1.4-0.8,1.4-1.7
			v-0.4C176.2,12.7,175.7,12.6,175.2,12.6z"/>
		<path class="st0" d="M146.7,18.1c0.8,0,1.4,0.3,1.4,0.3c0,0.3-0.1,0.6-0.3,0.9c0,0-0.4-0.1-1-0.1c-0.7,0-0.9,0.3-0.9,1V21h1.6
			c0,0.1,0.1,0.3,0.1,0.5s0,0.3-0.1,0.4h-1.6v5.5c0,0-0.2,0.1-0.6,0.1c-0.4,0-0.6-0.1-0.6-0.1v-5.5h-0.8c0-0.1-0.1-0.3-0.1-0.5
			s0-0.3,0.1-0.5h0.8v-0.7C144.6,19,145.1,18.1,146.7,18.1z"/>
		<path class="st0" d="M151,20.8c1.7,0,2.8,0.9,2.8,3.4s-1.1,3.4-2.8,3.4s-2.8-0.9-2.8-3.4C148.3,21.7,149.3,20.8,151,20.8z
			 M151,21.8c-0.9,0-1.5,0.5-1.5,2.4s0.6,2.4,1.5,2.4s1.5-0.5,1.5-2.4S151.9,21.8,151,21.8z"/>
		<path class="st0" d="M158.1,20.8c0.5,0,0.8,0.1,1.1,0.3c0,0.4-0.2,0.8-0.5,1c-0.2-0.2-0.5-0.3-0.8-0.3c-0.5,0-1,0.4-1.3,0.9v4.5
			c0,0-0.2,0.1-0.6,0.1c-0.4,0-0.6-0.1-0.6-0.1V21c0,0,0.2-0.1,0.6-0.1c0.4,0,0.6,0.1,0.6,0.1v0.9C157,21.1,157.6,20.8,158.1,20.8z"
			/>
		<path class="st0" d="M161,24.6c0.1,1.5,0.7,2,1.7,2c0.9,0,1.5-0.4,1.5-0.4c0.2,0.2,0.4,0.5,0.4,0.9c0,0-0.7,0.5-2.1,0.5
			c-1.9,0-2.8-1.2-2.8-3.4c0-2.4,1.1-3.4,2.8-3.4c1.5,0,2.5,0.8,2.5,2.5c0,0.8-0.1,1.3-0.1,1.3H161z M162.5,21.8
			c-0.8,0-1.4,0.5-1.5,1.9h2.7c0-0.1,0-0.3,0-0.6C163.7,22.4,163.4,21.8,162.5,21.8z"/>
		<path class="st0" d="M168.5,20.8c1.2,0,1.8,0.3,1.8,0.3c0,0.3-0.1,0.7-0.3,0.9c0,0-0.6-0.2-1.3-0.2c-0.8,0-1.3,0.3-1.3,0.9
			s0.8,0.8,1.6,1c0.8,0.3,1.7,0.6,1.7,1.9s-0.8,2-2.4,2c-1.3,0-2.1-0.4-2.1-0.4c0-0.4,0.1-0.7,0.3-0.9c0,0,0.8,0.3,1.7,0.3
			c0.8,0,1.2-0.3,1.2-0.9c0-0.7-0.7-0.8-1.4-1c-0.8-0.2-1.8-0.6-1.8-1.8C166.2,21.6,166.9,20.8,168.5,20.8z"/>
		<path class="st0" d="M173.7,25.1c0,1.1,0.4,1.5,1.2,1.5c0.2,0,0.5,0,0.5,0s0.1,0.2,0.1,0.5s-0.1,0.4-0.1,0.4
			c-0.2,0.1-0.6,0.1-0.9,0.1c-1.5,0-2.1-0.8-2.1-2.4v-3.3h-1c0,0-0.1-0.2-0.1-0.5s0.1-0.5,0.1-0.5h1v-1.1c0.3-0.2,0.8-0.3,1.2-0.3
			v1.4h1.6c0,0,0.1,0.2,0.1,0.5s-0.1,0.5-0.1,0.5h-1.6v3.2H173.7z"/>
		<path class="st0" d="M147.6,32.6c1.4,0,2.3,0.9,2.3,3.4s-0.9,3.4-2.3,3.4c-0.9,0-1.4-0.3-1.8-0.8v3.5c0,0-0.2,0.1-0.6,0.1
			c-0.4,0-0.6-0.1-0.6-0.1v-9.3c0,0,0.2-0.1,0.6-0.1c0.4,0,0.6,0.1,0.6,0.1v0.6C146.1,32.9,146.7,32.6,147.6,32.6z M147.1,33.6
			c-0.9,0-1.4,0.7-1.4,1.6v1.6c0,0.9,0.5,1.6,1.4,1.6c1,0,1.5-0.5,1.5-2.4S148.1,33.6,147.1,33.6z"/>
		<path class="st0" d="M154.2,32.6c0.5,0,0.8,0.1,1.1,0.3c0,0.4-0.2,0.8-0.5,1c-0.2-0.2-0.5-0.3-0.8-0.3c-0.5,0-1,0.4-1.3,0.9V39
			c0,0-0.2,0.1-0.6,0.1c-0.4,0-0.6-0.1-0.6-0.1v-6.4c0,0,0.2-0.1,0.6-0.1c0.4,0,0.6,0.1,0.6,0.1v0.9
			C153.2,32.9,153.7,32.6,154.2,32.6z"/>
		<path class="st0" d="M158.7,32.6c1.7,0,2.8,0.9,2.8,3.4s-1.1,3.4-2.8,3.4s-2.8-0.9-2.8-3.4C155.9,33.6,157,32.6,158.7,32.6z
			 M158.7,33.6c-0.9,0-1.5,0.5-1.5,2.4s0.6,2.4,1.5,2.4s1.5-0.5,1.5-2.4S159.6,33.6,158.7,33.6z"/>
		<path class="st0" d="M167.5,30c0.4,0,0.6,0.1,0.6,0.1v9.2c0,0-0.2,0.1-0.5,0.1s-0.6-0.1-0.6-0.1l-0.1-0.7
			c-0.4,0.5-0.9,0.9-1.9,0.9c-1.4,0-2.3-0.9-2.3-3.4s0.9-3.4,2.3-3.4c0.9,0,1.4,0.3,1.8,0.8V30C166.8,30,167.1,30,167.5,30z
			 M165.5,33.6c-1,0-1.5,0.5-1.5,2.4s0.5,2.4,1.5,2.4c0.9,0,1.4-0.7,1.4-1.6v-1.6C166.8,34.4,166.3,33.6,165.5,33.6z"/>
		<path class="st0" d="M169.9,32.8c0,0,0.2-0.1,0.6-0.1c0.4,0,0.6,0.1,0.6,0.1v4.5c0,0.7,0.4,1.1,1.2,1.1c0.5,0,1.1-0.3,1.4-0.8
			v-4.8c0,0,0.2-0.1,0.6-0.1c0.4,0,0.6,0.1,0.6,0.1v6.4c0,0-0.2,0.1-0.6,0.1c-0.4,0-0.6-0.1-0.6-0.1v-0.6c-0.4,0.5-1.1,0.8-1.9,0.8
			c-1.2,0-1.9-0.8-1.9-1.9L169.9,32.8L169.9,32.8z"/>
		<path class="st0" d="M177.7,36c0,1.6,0.5,2.3,1.7,2.3c0.7,0,1.2-0.2,1.2-0.2c0.2,0.2,0.3,0.5,0.4,0.9c0,0-0.5,0.4-1.8,0.4
			c-1.8,0-2.7-1.2-2.7-3.4s0.9-3.4,2.7-3.4c1.2,0,1.7,0.3,1.7,0.3c0,0.3-0.1,0.7-0.4,0.9c0,0-0.4-0.2-1.1-0.2
			C178.2,33.6,177.7,34.4,177.7,36z"/>
		<path class="st0" d="M184,36.9c0,1.1,0.4,1.5,1.2,1.5c0.2,0,0.5,0,0.5,0s0.1,0.2,0.1,0.5s-0.1,0.4-0.1,0.4
			c-0.2,0.1-0.6,0.1-0.9,0.1c-1.5,0-2.1-0.8-2.1-2.4v-3.3h-1c0,0-0.1-0.2-0.1-0.5s0.1-0.5,0.1-0.5h1v-1.1c0.3-0.2,0.8-0.3,1.2-0.3
			v1.4h1.6c0,0,0.1,0.2,0.1,0.5s-0.1,0.5-0.1,0.5H184V36.9z"/>
		<path class="st0" d="M189.1,32.6c1.2,0,1.8,0.3,1.8,0.3c0,0.3-0.1,0.7-0.3,0.9c0,0-0.6-0.2-1.3-0.2c-0.8,0-1.3,0.3-1.3,0.9
			c0,0.6,0.8,0.8,1.6,1c0.8,0.3,1.7,0.6,1.7,1.9c0,1.3-0.8,2-2.4,2c-1.3,0-2.1-0.4-2.1-0.4c0-0.4,0.1-0.7,0.3-0.9
			c0,0,0.8,0.3,1.7,0.3c0.8,0,1.2-0.3,1.2-0.9c0-0.7-0.7-0.8-1.4-1c-0.8-0.2-1.8-0.6-1.8-1.8C186.7,33.4,187.5,32.6,189.1,32.6z"/>
	</g>
-->
	<polygon class="st0" points="0,39.4 15.2,0 30.4,39.4 	"/>
	<polygon class="st0" points="27.7,32.5 38.2,5.2 48.7,32.5 	"/>
	<polygon class="st0" points="23.3,21 27.7,9.4 32.2,21 	"/>
	<g>
		<path class="st0" d="M82.5,16.7c0-5.6-4.6-10.1-10.2-10.1H61c-0.5,0-0.9,0.4-0.9,0.9v31c0,0.5,0.4,0.9,0.9,0.9h4.3
			c0.5,0,0.9-0.4,0.9-0.9V26.6h4.5L75.5,39c0.1,0.2,0.3,0.4,0.7,0.4h4.9c0.8,0,1.1-0.7,0.8-1.4L77,25.4
			C80.3,23.6,82.5,20.5,82.5,16.7z M66.2,12.3h5.5c2.5,0,4.6,2.1,4.6,4.5c0,2.6-2.2,4.8-4.6,4.8h-5.5V12.3z"/>
		<path class="st0" d="M106.5,6.7H87.4c-0.5,0-0.9,0.4-0.9,0.9v31c0,0.5,0.4,0.9,0.9,0.9h4.3c0.5,0,0.9-0.4,0.9-0.9V26.7h11.6
			c0.5,0,0.9-0.4,0.9-0.9V22c0-0.5-0.4-0.9-0.9-0.9H92.6v-8.8h13.9c0.5,0,0.9-0.4,0.9-0.9V7.5C107.3,7.1,107,6.7,106.5,6.7z"/>
		<path class="st0" d="M122.6,6.7h-11c-0.5,0-0.9,0.4-0.9,0.9v31c0,0.5,0.4,0.9,0.9,0.9h4.3c0.5,0,0.9-0.4,0.9-0.9v-11h5.9
			c5.7,0,10.4-4.7,10.4-10.5S128.4,6.7,122.6,6.7z M122.2,21.8h-5.4v-9.4h5.4c2.6,0,4.8,2,4.8,4.5C127.1,19.7,124.9,21.8,122.2,21.8
			z"/>
	</g>
</g>
</svg>
